<?xml version="1.0" standalone="no"?>
<!DOCTYPE svg PUBLIC "-//W3C//DTD SVG 20010904//EN"
 "http://www.w3.org/TR/2001/REC-SVG-20010904/DTD/svg10.dtd">
<svg version="1.0" xmlns="http://www.w3.org/2000/svg"
 width="2150.000000pt" height="524.000000pt" viewBox="0 0 2150.000000 524.000000"
 preserveAspectRatio="xMidYMid meet">

<g transform="translate(0.000000,524.000000) scale(0.100000,-0.100000)"
fill="#000000" stroke="none">
<path d="M943 3498 c4 -873 1 -833 62 -1014 111 -332 370 -579 743 -708 57
-20 117 -36 132 -36 15 0 74 16 131 36 449 156 718 463 793 903 14 81 16 202
16 858 l0 763 -940 0 -941 0 4 -802z m1807 58 c0 -389 -4 -718 -10 -777 -33
-326 -163 -569 -402 -749 -89 -67 -261 -155 -380 -195 l-78 -25 -77 25 c-43
15 -120 46 -171 70 -328 155 -517 392 -594 745 -20 90 -21 132 -25 838 l-4
742 870 0 871 0 0 -674z"/>
<path d="M1114 4125 c-4 -8 -4 -95 -2 -193 4 -183 14 -228 56 -275 78 -87 291
-88 377 -2 55 55 66 111 63 311 l-3 169 -62 3 -61 3 -4 -189 c-3 -215 -9 -232
-78 -253 -46 -14 -108 -1 -131 28 -10 12 -15 67 -19 212 l-5 196 -63 3 c-49 2
-64 0 -68 -13z"/>
<path d="M1710 3871 l0 -271 123 0 c140 0 198 14 242 60 54 56 50 144 -8 195
l-35 30 30 34 c27 30 30 39 26 83 -6 58 -42 102 -97 119 -20 5 -91 13 -158 16
l-123 6 0 -272z m238 153 c22 -15 29 -49 14 -70 -13 -20 -50 -34 -91 -34 l-41
0 0 60 0 60 48 0 c27 0 57 -7 70 -16z m16 -215 c31 -24 34 -57 7 -90 -14 -18
-31 -23 -80 -27 l-61 -4 0 71 0 71 54 0 c39 0 60 -6 80 -21z"/>
<path d="M2370 4131 c-78 -24 -146 -87 -175 -164 -22 -57 -17 -175 8 -228 25
-51 74 -99 127 -123 61 -28 194 -29 264 -2 l48 19 -5 50 c-4 27 -8 51 -10 53
-2 2 -23 -7 -48 -19 -60 -30 -156 -31 -195 -1 -51 37 -68 70 -72 137 -9 153
111 230 255 162 l52 -24 7 49 c4 28 6 53 6 57 0 5 -20 16 -43 25 -46 18 -173
23 -219 9z"/>
<path d="M1310 3530 c-25 -5 -61 -15 -80 -23 -19 -8 -54 -18 -77 -22 l-43 -7
0 -59 c0 -58 1 -59 28 -59 15 0 63 12 107 26 94 31 185 29 273 -5 69 -28 140
-26 235 4 43 14 100 25 127 25 27 0 84 -11 127 -25 95 -30 166 -32 235 -4 88
34 179 36 273 5 44 -14 92 -26 108 -26 26 0 27 1 27 59 l0 59 -37 6 c-21 4
-63 16 -93 28 -78 29 -186 28 -265 -3 -39 -15 -81 -23 -120 -23 -39 0 -81 8
-120 23 -80 31 -188 32 -265 2 -90 -34 -134 -36 -225 -8 -97 30 -155 38 -215
27z"/>
<path d="M1877 3320 c-3 -8 -24 -152 -47 -320 -22 -168 -44 -320 -47 -338 -5
-31 -15 -18 -170 240 -91 150 -162 261 -159 246 3 -15 33 -145 67 -289 33
-143 59 -265 57 -269 -2 -4 -77 63 -168 150 -91 87 -166 157 -168 155 -2 -2
35 -96 82 -211 48 -114 85 -208 84 -210 -2 -1 -64 42 -138 97 -74 55 -136 95
-138 91 -1 -5 19 -62 47 -126 130 -307 287 -456 612 -582 l87 -34 57 20 c86
30 235 103 302 148 167 113 268 250 363 490 18 45 31 85 28 87 -3 3 -65 -40
-138 -95 -73 -55 -135 -98 -137 -97 -1 2 35 95 82 208 47 112 84 207 83 210
-2 4 -77 -64 -168 -151 -91 -87 -166 -155 -168 -151 -1 4 27 135 63 290 36
155 65 286 65 289 0 4 -74 -117 -165 -268 -91 -151 -165 -271 -165 -266 0 8
-84 622 -93 676 -2 18 -5 21 -10 10z"/>
<path d="M1225 3295 c-38 -13 -80 -24 -92 -24 -21 -1 -23 -6 -23 -61 l0 -60
35 0 c19 0 58 10 87 22 76 31 191 31 281 -1 38 -13 90 -23 119 -23 56 1 168
38 169 56 0 6 4 32 8 58 4 27 6 50 4 52 -2 2 -38 -7 -79 -20 -94 -30 -125 -30
-220 1 -99 32 -192 32 -289 0z"/>
<path d="M1950 3291 c0 -14 3 -43 6 -63 6 -34 11 -38 64 -58 76 -29 160 -28
231 1 75 31 202 32 277 1 29 -12 68 -22 87 -22 l35 0 0 60 c0 53 -2 60 -20 60
-10 0 -54 11 -97 25 -103 33 -186 33 -287 0 -95 -31 -126 -31 -221 -1 l-75 24
0 -27z"/>
<path d="M1231 3085 c-40 -14 -84 -25 -97 -25 -23 0 -24 -4 -24 -60 0 -41 4
-62 13 -66 8 -3 51 7 98 22 51 17 109 27 147 28 l63 1 -6 30 c-3 17 -9 45 -12
63 -5 31 -7 32 -57 32 -28 -1 -84 -12 -125 -25z"/>
<path d="M2355 3098 c-9 -27 -25 -93 -25 -103 0 -6 28 -10 63 -11 37 -1 95
-12 146 -28 47 -15 90 -25 98 -22 9 4 13 25 13 66 0 56 -1 60 -24 60 -13 0
-58 11 -100 25 -83 27 -164 33 -171 13z"/>
<path d="M1725 3079 c-27 -10 -69 -18 -93 -19 -24 0 -42 -3 -40 -8 2 -4 17
-31 33 -60 28 -49 32 -53 60 -49 68 11 83 23 90 70 4 24 5 53 3 64 -3 19 -4
19 -53 2z"/>
<path d="M1981 3062 c3 -74 12 -94 49 -108 62 -22 73 -18 105 38 17 29 32 56
33 60 2 5 -15 8 -37 8 -23 0 -66 9 -96 19 l-55 19 1 -36z"/>
<path d="M7347 4073 c-16 -2 -30 -10 -33 -16 -2 -7 35 -114 83 -237 l88 -225
44 0 44 0 92 235 92 235 -45 3 c-24 2 -46 1 -48 -1 -3 -3 -33 -82 -68 -177
l-63 -172 -17 43 c-9 24 -38 105 -65 179 -29 79 -55 135 -62 136 -8 1 -27 -1
-42 -3z"/>
<path d="M9090 4058 c-56 -28 -83 -76 -76 -132 6 -53 45 -90 130 -121 104 -39
130 -70 87 -109 -30 -27 -80 -29 -151 -7 -71 22 -80 19 -80 -35 0 -29 4 -33
48 -45 154 -45 284 11 286 125 2 74 -24 99 -167 160 -60 26 -77 48 -60 75 18
29 72 35 135 14 l57 -20 6 38 c4 21 4 43 1 48 -7 11 -95 31 -139 31 -18 0 -53
-10 -77 -22z"/>
<path d="M10342 4070 c-18 -4 -35 -10 -38 -12 -2 -3 32 -64 76 -137 l80 -131
0 -95 0 -95 50 0 50 0 0 89 0 90 85 141 c47 78 85 143 85 146 0 2 -22 4 -49 4
l-50 0 -59 -100 -58 -100 -60 105 c-32 58 -63 104 -69 104 -5 -1 -25 -5 -43
-9z"/>
<path d="M11245 4068 c-110 -38 -172 -163 -145 -291 37 -180 246 -248 376
-122 71 68 92 177 53 279 -42 115 -169 174 -284 134z m136 -91 c44 -29 69 -80
69 -141 0 -126 -97 -201 -188 -146 -64 39 -92 156 -54 230 20 41 75 80 112 80
15 0 42 -10 61 -23z"/>
<path d="M14890 4058 c-56 -29 -83 -76 -76 -133 6 -52 52 -93 139 -124 93 -32
119 -68 78 -105 -30 -27 -80 -29 -151 -7 -72 23 -82 18 -78 -34 3 -25 9 -32
43 -44 64 -22 173 -20 214 4 54 32 76 69 75 126 -1 65 -31 97 -138 141 -86 36
-108 57 -90 86 19 30 72 36 136 15 l58 -20 6 34 c9 49 1 60 -56 72 -75 16
-111 14 -160 -11z"/>
<path d="M16322 4054 c-88 -44 -128 -127 -120 -246 7 -94 43 -153 118 -191 48
-25 63 -28 120 -24 85 5 130 28 130 65 0 49 -12 55 -61 33 -56 -26 -105 -26
-147 -1 -42 26 -62 73 -62 145 0 72 20 119 62 145 42 25 93 25 143 0 45 -23
52 -19 57 30 3 30 -1 37 -27 49 -16 8 -59 17 -95 19 -55 3 -73 -1 -118 -24z"/>
<path d="M16875 4062 c-151 -73 -184 -296 -60 -411 109 -100 279 -72 347 58
23 44 28 66 28 126 0 97 -34 166 -104 209 -62 39 -151 46 -211 18z m161 -87
c57 -37 79 -162 41 -233 -20 -37 -71 -72 -105 -72 -43 0 -92 31 -112 71 -26
50 -27 142 -2 189 35 65 116 86 178 45z"/>
<path d="M20188 3858 c-48 -123 -90 -231 -94 -241 -6 -16 -1 -18 41 -15 48 3
48 3 68 56 l20 53 100 -3 100 -3 19 -54 c10 -30 20 -56 22 -58 2 -2 24 1 48 7
l45 12 -91 231 -92 232 -49 3 -50 3 -87 -223z m166 30 c14 -40 26 -76 26 -80
0 -5 -27 -8 -60 -8 -33 0 -60 3 -60 7 0 15 55 153 61 153 3 0 18 -33 33 -72z"/>
<path d="M3720 4030 l0 -40 70 0 70 0 0 -195 0 -195 50 0 50 0 0 195 0 195 76
0 77 0 -7 31 c-3 17 -6 35 -6 40 0 5 -85 9 -190 9 l-190 0 0 -40z"/>
<path d="M4280 3835 l0 -235 50 0 50 0 0 100 0 100 95 0 95 0 0 -100 0 -100
50 0 50 0 0 235 0 235 -50 0 -50 0 0 -90 0 -90 -95 0 -95 0 0 90 0 90 -50 0
-50 0 0 -235z"/>
<path d="M4930 3835 l0 -235 155 0 155 0 0 40 0 40 -110 0 -110 0 0 60 0 60
91 0 91 0 -7 37 c-4 21 -9 41 -11 45 -3 5 -41 8 -85 8 l-79 0 0 50 0 50 105 0
105 0 0 40 0 40 -150 0 -150 0 0 -235z"/>
<path d="M5750 3901 c0 -95 5 -182 11 -198 36 -97 169 -142 274 -94 89 41 104
84 105 299 l0 162 -50 0 -50 0 0 -169 c0 -165 -1 -171 -24 -198 -20 -23 -32
-28 -70 -28 -36 0 -51 6 -73 28 l-28 27 -3 170 -4 170 -44 0 -44 0 0 -169z"/>
<path d="M6380 3835 l0 -235 45 0 45 0 0 162 0 161 110 -161 111 -162 39 0 40
0 0 235 0 235 -40 0 -39 0 -3 -152 -3 -153 -105 153 -104 152 -48 0 -48 0 0
-235z"/>
<path d="M7030 3835 l0 -235 50 0 50 0 0 235 0 235 -50 0 -50 0 0 -235z"/>
<path d="M7930 3835 l0 -235 150 0 150 0 0 40 0 40 -105 0 -105 0 0 60 0 60
90 0 91 0 -7 38 c-4 20 -9 40 -11 45 -2 4 -40 7 -84 7 l-79 0 0 50 0 50 105 0
105 0 0 40 0 40 -150 0 -150 0 0 -235z"/>
<path d="M8460 3836 l0 -236 50 0 50 0 0 90 c0 120 13 120 102 -4 l68 -94 37
9 c21 5 41 9 46 9 15 0 5 19 -52 95 l-59 79 41 36 c36 32 40 42 44 90 3 43 0
62 -16 87 -36 58 -63 68 -193 72 l-118 3 0 -236z m215 134 c9 -7 15 -29 15
-52 0 -35 -3 -40 -35 -54 -19 -7 -48 -14 -65 -14 l-30 0 0 71 0 72 50 -5 c27
-3 56 -11 65 -18z"/>
<path d="M9560 3835 l0 -235 50 0 50 0 0 235 0 235 -50 0 -50 0 0 -235z"/>
<path d="M9830 4030 l0 -40 70 0 70 0 0 -195 0 -195 50 0 50 0 0 195 0 195 76
0 77 0 -7 31 c-3 17 -6 35 -6 40 0 5 -85 9 -190 9 l-190 0 0 -40z"/>
<path d="M11760 3835 l0 -235 45 0 45 0 0 95 0 95 79 0 c44 0 82 3 84 8 2 4 2
24 0 45 l-5 37 -79 0 -79 0 0 55 0 55 100 0 100 0 0 40 0 40 -145 0 -145 0 0
-235z"/>
<path d="M12540 3835 l0 -235 110 0 c121 0 159 10 200 55 20 22 25 37 25 82 0
49 -3 57 -34 85 l-33 30 22 23 c31 33 36 92 10 133 -30 49 -72 62 -195 62
l-105 0 0 -235z m214 139 c9 -8 16 -24 16 -34 0 -34 -28 -50 -86 -50 l-54 0 0
50 0 50 54 0 c36 0 60 -5 70 -16z m18 -194 c23 -29 23 -55 -2 -80 -16 -16 -33
-20 -80 -20 l-60 0 0 66 0 67 62 -6 c48 -4 67 -11 80 -27z"/>
<path d="M13100 3835 l0 -235 45 0 45 0 0 90 c0 82 2 90 19 90 12 0 43 -32 87
-92 37 -51 68 -94 69 -95 1 -3 89 19 94 23 2 2 -24 40 -58 85 l-61 82 39 36
c51 48 61 100 32 166 -29 66 -74 84 -208 85 l-103 0 0 -235z m193 144 c29 -16
37 -28 37 -60 0 -37 -32 -61 -90 -67 l-50 -5 0 72 0 71 41 0 c22 0 50 -5 62
-11z"/>
<path d="M13660 3835 l0 -235 50 0 50 0 0 235 0 235 -50 0 -50 0 0 -235z"/>
<path d="M13930 4030 l0 -40 75 0 75 0 0 -195 0 -195 45 0 45 0 0 195 0 195
75 0 c73 0 75 1 75 24 0 57 3 56 -201 56 l-189 0 0 -40z"/>
<path d="M14490 3835 l0 -235 45 0 45 0 0 235 0 235 -45 0 -45 0 0 -235z"/>
<path d="M15330 3835 l0 -235 50 0 50 0 0 100 0 100 100 0 100 0 0 -100 0
-100 45 0 45 0 0 235 0 235 -45 0 -45 0 0 -90 0 -90 -100 0 -100 0 0 90 0 90
-50 0 -50 0 0 -235z"/>
<path d="M17390 3835 l0 -235 140 0 c152 0 149 -1 134 58 -6 21 -12 22 -90 22
l-84 0 0 195 0 195 -50 0 -50 0 0 -235z"/>
<path d="M17830 3908 c1 -215 16 -258 105 -299 74 -34 173 -21 229 30 50 45
56 74 56 261 l0 170 -44 0 -44 0 -4 -167 c-3 -186 -9 -205 -65 -224 -44 -14
-88 -3 -113 28 -18 23 -20 40 -20 194 l0 169 -50 0 -50 0 0 -162z"/>
<path d="M18476 4038 c-3 -18 -10 -100 -16 -183 -6 -82 -13 -174 -16 -202 l-6
-53 45 0 45 0 7 83 c3 45 9 123 13 172 l7 90 60 -172 60 -173 46 0 47 0 26 73
c14 39 41 115 59 167 l34 95 6 -45 c4 -25 9 -92 12 -150 9 -143 7 -140 62
-140 l46 0 -6 68 c-3 37 -12 143 -18 235 l-12 168 -65 -3 -64 -3 -59 -169
c-32 -93 -60 -170 -61 -172 -2 -1 -30 76 -63 172 l-60 174 -62 0 -62 0 -5 -32z"/>
<path d="M19250 3835 l0 -235 112 0 c133 0 186 19 212 74 30 63 18 120 -33
163 -14 12 -20 22 -14 23 22 0 46 60 40 102 -11 82 -62 108 -212 108 l-105 0
0 -235z m214 139 c41 -40 7 -84 -65 -84 l-49 0 0 50 0 50 49 0 c32 0 55 -6 65
-16z m17 -190 c26 -24 25 -69 -3 -88 -14 -10 -44 -16 -75 -16 l-53 0 0 66 0
67 56 -6 c32 -3 64 -13 75 -23z"/>
<path d="M19820 3835 l0 -235 45 0 45 0 0 235 0 235 -45 0 -45 0 0 -235z"/>
<path d="M16093 2688 l-63 -10 0 -404 0 -404 70 0 70 0 0 190 0 190 42 30 c28
20 53 30 78 30 66 0 69 -10 72 -236 l3 -199 68 -3 67 -3 0 231 c0 250 -3 267
-56 309 -57 45 -164 34 -240 -24 l-34 -26 0 170 c0 94 -3 170 -7 170 -5 -1
-36 -6 -70 -11z"/>
<path d="M11075 2678 c-70 -25 -105 -89 -105 -197 l0 -50 -37 -3 -38 -3 -3
-57 -3 -58 40 0 41 0 2 -217 3 -218 68 -3 67 -3 0 220 0 220 63 3 63 3 -10 55
-11 55 -54 3 -53 3 4 55 c6 71 24 90 84 87 l46 -2 -7 52 c-4 29 -9 55 -12 60
-6 10 -113 7 -148 -5z"/>
<path d="M11933 2670 c-197 -42 -318 -222 -299 -445 15 -179 103 -302 249
-347 120 -36 299 -15 393 47 l24 16 -2 187 -3 187 -158 3 -159 3 7 -58 c4 -32
9 -61 12 -65 2 -5 40 -8 84 -8 l79 0 0 -85 c0 -84 -1 -86 -27 -97 -16 -6 -56
-13 -91 -16 -80 -6 -138 16 -185 67 -48 54 -62 100 -62 211 0 121 29 192 96
237 39 26 50 28 134 28 83 0 97 -3 152 -31 l60 -31 11 66 c13 78 11 82 -71
111 -66 23 -183 33 -244 20z"/>
<path d="M3750 2266 l0 -396 153 0 c230 0 332 32 422 132 138 153 113 462 -46
577 -87 63 -135 74 -341 79 l-188 4 0 -396z m381 237 c70 -36 107 -88 121
-175 23 -132 -21 -247 -111 -297 -36 -20 -63 -25 -143 -29 l-98 -5 0 267 0
266 88 0 c77 0 96 -4 143 -27z"/>
<path d="M7030 2615 c-8 -2 -32 -6 -52 -10 l-38 -6 0 -84 0 -84 -37 -3 -38 -3
-3 -57 -3 -58 41 0 40 0 0 -162 c0 -193 12 -232 76 -264 38 -18 174 -28 188
-13 4 3 4 32 0 63 l-7 56 -43 0 c-70 0 -74 10 -74 176 l0 144 66 0 66 0 -6 30
c-3 17 -9 44 -12 60 -5 29 -8 30 -60 30 l-54 0 0 95 c0 101 0 100 -50 90z"/>
<path d="M9690 2615 c-8 -2 -32 -6 -52 -10 l-38 -6 0 -84 0 -84 -37 -3 -38 -3
-3 -57 -3 -58 41 0 40 0 0 -153 c0 -169 7 -208 46 -248 33 -35 112 -55 178
-45 50 8 52 12 40 89 -6 36 -8 37 -49 37 -69 0 -75 13 -75 178 l0 142 66 0 65
0 -6 48 c-10 73 -9 72 -70 72 l-55 0 0 95 c0 101 0 100 -50 90z"/>
<path d="M4722 2425 c-61 -19 -103 -55 -137 -116 -25 -46 -30 -68 -33 -144 -5
-113 19 -185 78 -239 81 -73 235 -86 349 -29 l56 28 -3 50 c-2 28 -6 52 -8 54
-2 2 -28 -8 -58 -23 -68 -35 -148 -44 -198 -23 -42 18 -78 68 -78 110 l0 27
175 0 175 0 0 48 c0 190 -148 310 -318 257z m127 -101 c23 -17 51 -70 51 -99
0 -12 -17 -15 -105 -15 -118 0 -120 2 -86 69 30 58 92 78 140 45z"/>
<path d="M5426 2425 c-21 -7 -50 -25 -65 -39 -33 -32 -41 -32 -41 -3 0 40 -13
48 -71 45 l-54 -3 -3 -383 -2 -384 42 7 c24 3 55 8 71 11 l27 6 0 98 0 98 83
-5 c103 -7 145 6 204 60 59 54 87 144 81 257 -8 131 -61 213 -154 239 -50 14
-70 13 -118 -4z m81 -130 c53 -37 69 -177 29 -253 -29 -56 -101 -77 -175 -51
l-31 11 0 118 0 118 40 36 c45 40 98 48 137 21z"/>
<path d="M5953 2426 c-99 -23 -105 -28 -97 -89 4 -29 7 -53 8 -54 1 -1 26 7
56 17 68 24 167 26 198 4 14 -9 22 -26 22 -43 0 -27 -3 -28 -87 -45 -112 -22
-160 -43 -200 -89 -59 -68 -51 -189 17 -237 60 -42 172 -35 241 16 36 27 49
24 49 -12 0 -23 3 -24 61 -24 l60 0 -3 234 c-3 263 -6 272 -81 309 -49 25
-165 30 -244 13z m187 -345 c0 -56 -2 -61 -32 -83 -23 -16 -47 -22 -82 -23
-43 0 -52 3 -64 26 -19 33 -9 74 23 95 35 23 94 43 128 44 26 0 27 -1 27 -59z"/>
<path d="M6710 2427 c-19 -6 -54 -31 -77 -55 l-42 -43 -6 38 c-11 65 -10 64
-72 61 l-58 -3 0 -275 0 -275 70 0 70 0 3 160 c3 158 3 160 30 188 31 33 83
61 130 72 17 3 32 9 32 12 0 4 -5 35 -11 70 -12 67 -13 68 -69 50z"/>
<path d="M7610 2431 c-41 -13 -84 -37 -105 -61 l-20 -22 -11 38 c-11 39 -11
39 -67 42 l-57 3 0 -281 0 -280 70 0 70 0 0 188 c0 183 1 189 23 209 32 30 62
43 94 43 57 0 58 -1 63 -227 l5 -208 70 0 70 0 3 184 c2 159 5 188 20 204 42
47 116 61 145 29 15 -16 17 -47 17 -220 l0 -202 70 0 70 0 0 225 c0 245 -5
274 -54 313 -60 47 -173 34 -246 -26 l-34 -29 -29 33 c-40 46 -105 63 -167 45z"/>
<path d="M8462 2425 c-61 -19 -103 -55 -137 -116 -25 -46 -30 -68 -33 -144 -5
-113 19 -185 78 -239 81 -73 235 -86 349 -29 l56 28 -3 50 c-2 28 -6 52 -8 54
-2 2 -28 -8 -58 -23 -68 -35 -148 -44 -198 -23 -42 18 -78 68 -78 110 l0 27
175 0 175 0 0 48 c0 190 -148 310 -318 257z m127 -101 c23 -17 51 -70 51 -99
0 -12 -17 -15 -105 -15 -118 0 -120 2 -86 69 30 58 92 78 140 45z"/>
<path d="M9175 2425 c-22 -9 -57 -29 -77 -46 l-38 -30 0 28 c0 46 -12 54 -71
51 l-54 -3 -3 -277 -2 -278 70 0 70 0 0 190 0 190 47 30 c53 34 102 39 126 12
14 -15 17 -50 19 -218 l3 -199 70 0 70 0 0 225 c0 207 -2 228 -20 259 -11 19
-31 42 -45 53 -35 25 -115 32 -165 13z"/>
<path d="M10450 2420 c-112 -38 -177 -152 -168 -294 9 -131 72 -222 177 -252
183 -54 341 72 341 270 0 142 -67 247 -179 280 -70 20 -103 20 -171 -4z m155
-122 c38 -30 55 -76 55 -153 0 -109 -40 -164 -121 -165 -52 0 -83 22 -105 76
-18 43 -18 145 0 188 30 72 114 99 171 54z"/>
<path d="M12622 2422 c-108 -39 -165 -130 -166 -267 -1 -135 40 -216 138 -268
61 -33 199 -31 281 3 65 27 71 37 61 105 l-7 43 -55 -30 c-74 -40 -164 -48
-211 -19 -38 24 -59 54 -68 99 l-7 32 183 0 182 0 -7 67 c-8 74 -35 144 -69
181 -59 63 -165 86 -255 54z m128 -97 c18 -9 34 -30 46 -60 9 -25 15 -48 12
-51 -3 -2 -53 -3 -111 -2 l-105 3 13 40 c26 75 83 102 145 70z"/>
<path d="M13265 2431 c-118 -29 -195 -139 -195 -280 0 -143 59 -239 170 -276
148 -49 295 30 336 180 61 228 -103 426 -311 376z m124 -127 c35 -25 61 -91
61 -157 0 -105 -46 -167 -124 -167 -23 0 -51 7 -62 15 -80 55 -74 273 8 312
34 17 90 15 117 -3z"/>
<path d="M13853 2426 c-61 -20 -99 -51 -122 -99 -38 -79 -23 -169 39 -220 l32
-27 -31 -35 c-34 -40 -36 -49 -18 -85 12 -23 10 -28 -33 -66 -41 -38 -45 -46
-45 -87 0 -60 35 -98 113 -123 75 -23 208 -23 287 0 160 48 204 210 75 273
-27 13 -89 28 -154 37 -59 8 -113 19 -118 24 -19 19 1 29 66 35 139 13 222 97
214 218 l-3 44 43 3 44 3 -7 52 c-4 29 -9 54 -10 56 -2 1 -32 -7 -68 -18 l-63
-21 -48 21 c-60 26 -139 33 -193 15z m144 -109 c47 -42 37 -134 -19 -163 -63
-33 -138 11 -138 82 0 96 90 142 157 81z m60 -452 c30 -7 47 -39 34 -64 -36
-66 -255 -68 -290 -2 -13 23 7 73 34 89 14 7 162 -7 222 -23z"/>
<path d="M14615 2425 c-22 -8 -57 -32 -78 -55 -21 -22 -39 -40 -41 -40 -2 0
-6 23 -10 50 l-7 50 -59 0 -60 0 0 -280 0 -280 70 0 70 0 0 164 0 164 42 37
c24 20 66 43 96 51 l54 16 -7 61 c-9 86 -7 84 -70 62z"/>
<path d="M14915 2434 c-11 -2 -49 -12 -83 -21 l-64 -16 7 -56 c4 -31 8 -57 9
-58 0 -1 26 7 56 17 76 27 174 26 200 0 11 -11 20 -31 20 -44 0 -22 -6 -25
-72 -36 -190 -32 -275 -111 -254 -238 20 -125 179 -163 298 -71 l37 29 7 -35
6 -35 60 0 59 0 -3 233 c-3 221 -4 233 -25 263 -13 17 -39 39 -59 49 -35 16
-159 29 -199 19z m145 -353 c0 -55 -2 -61 -31 -82 -43 -30 -113 -37 -139 -14
-63 57 23 149 143 154 27 1 27 0 27 -58z"/>
<path d="M15606 2425 c-21 -7 -50 -25 -65 -39 -35 -33 -39 -33 -43 7 l-3 32
-60 0 -60 0 -3 -383 -2 -384 42 7 c24 3 55 8 71 11 l27 6 0 98 0 97 90 -5 c96
-5 130 3 187 46 80 60 118 239 77 368 -38 120 -146 179 -258 139z m87 -135
c61 -48 63 -207 4 -276 -27 -31 -96 -42 -151 -24 l-36 12 0 117 c0 115 1 118
28 143 57 53 111 63 155 28z"/>
<path d="M16648 2423 c-21 -2 -38 -6 -38 -8 0 -2 45 -125 100 -275 97 -263
100 -272 85 -300 -22 -43 -58 -63 -105 -58 -38 3 -40 2 -40 -23 0 -15 3 -40 6
-58 8 -40 51 -49 126 -27 57 16 94 48 123 105 16 32 235 633 235 645 0 3 -31
6 -69 6 l-68 0 -37 -117 c-21 -65 -47 -148 -59 -186 -11 -37 -24 -64 -28 -60
-4 5 -33 88 -65 186 l-59 177 -35 -2 c-19 -1 -52 -3 -72 -5z"/>
<path d="M5262 1472 c-9 -7 -12 -68 -10 -273 l3 -264 28 -3 27 -3 0 275 c0
256 -1 276 -17 276 -10 0 -24 -4 -31 -8z"/>
<path d="M6800 1467 c-34 -17 -50 -53 -50 -114 0 -50 -2 -53 -25 -53 -20 0
-25 -5 -25 -25 0 -20 5 -25 25 -25 l25 0 0 -160 0 -160 25 0 25 0 0 160 0 160
41 0 c36 0 40 2 37 23 -2 18 -10 23 -42 25 l-38 3 4 49 c6 60 21 80 59 80 30
0 34 6 23 34 -7 19 -49 21 -84 3z"/>
<path d="M3732 1198 l3 -263 28 -3 27 -3 0 120 0 121 83 0 c46 0 86 2 89 5 3
3 3 17 0 30 -4 24 -7 25 -88 25 l-84 0 0 90 0 90 105 0 105 0 0 25 0 25 -135
0 -135 0 2 -262z"/>
<path d="M7285 1253 c-44 -113 -90 -232 -102 -264 l-23 -59 29 0 c26 0 30 6
60 85 l33 85 113 0 114 0 32 -85 c30 -79 35 -86 58 -83 17 2 25 8 23 18 -2 8
-46 126 -100 263 l-96 247 -31 0 c-30 0 -30 -1 -110 -207z m158 17 l45 -115
-44 -3 c-24 -2 -65 -2 -92 0 l-49 3 45 118 c25 64 46 116 48 114 2 -1 23 -54
47 -117z"/>
<path d="M5488 1423 c-15 -4 -18 -16 -18 -63 0 -57 -1 -59 -27 -62 -20 -2 -29
-9 -31 -25 -3 -20 1 -23 27 -23 l31 0 0 -138 c0 -154 5 -169 60 -180 55 -12
82 -4 78 21 -2 17 -9 21 -29 19 -50 -6 -59 17 -59 154 l0 124 45 0 c45 0 50 5
39 34 -4 11 -19 16 -45 16 l-39 0 0 65 c0 36 -3 64 -7 64 -5 -1 -16 -3 -25 -6z"/>
<path d="M8083 1423 c-21 -4 -23 -10 -23 -64 0 -56 -1 -59 -25 -59 -20 0 -25
-5 -25 -25 0 -20 5 -25 24 -25 l24 0 4 -141 c3 -134 4 -142 27 -160 16 -13 39
-19 73 -19 46 0 49 2 46 23 -2 16 -9 21 -25 19 -12 -2 -31 2 -43 8 -19 10 -20
20 -20 140 l0 130 44 0 c41 0 43 1 38 25 -4 22 -10 25 -43 25 l-39 0 0 65 c0
36 -3 64 -7 64 -5 -1 -18 -4 -30 -6z"/>
<path d="M4100 1286 c-24 -9 -36 -20 -38 -36 -3 -20 -1 -22 25 -16 15 4 53 10
84 13 65 6 89 -10 89 -58 0 -25 -4 -29 -28 -29 -48 0 -136 -31 -164 -58 -50
-47 -46 -123 9 -159 36 -24 102 -22 148 5 44 27 41 27 48 1 4 -13 12 -19 24
-17 16 3 18 16 18 157 l0 153 -33 29 c-28 25 -40 29 -90 28 -31 0 -73 -6 -92
-13z m158 -217 c-2 -42 -8 -56 -29 -71 -37 -28 -101 -35 -122 -13 -23 22 -21
68 2 89 21 19 93 44 129 45 22 1 23 -2 20 -50z"/>
<path d="M4522 1283 c-99 -49 -122 -215 -41 -307 41 -48 103 -62 176 -41 54
16 70 32 59 60 -4 12 -11 12 -48 -5 -52 -24 -80 -25 -118 -5 -39 20 -60 63
-60 124 0 60 11 92 41 120 30 28 102 28 147 1 25 -15 32 -17 32 -6 0 8 3 21 6
29 3 10 -8 19 -36 31 -51 20 -116 20 -158 -1z"/>
<path d="M4830 1150 c0 -179 8 -203 71 -220 45 -12 66 -8 127 26 l42 25 0 -26
c0 -22 4 -26 23 -23 22 3 22 4 22 183 l0 180 -25 0 -25 0 -3 -129 c-2 -83 -7
-135 -15 -144 -13 -17 -84 -51 -105 -52 -7 0 -24 11 -37 25 -24 23 -25 29 -25
165 l0 140 -25 0 -25 0 0 -150z"/>
<path d="M5699 1293 c-14 -3 -6 -31 52 -184 l69 -180 -20 -38 c-19 -39 -36
-51 -71 -51 -22 0 -24 -9 -6 -34 12 -17 18 -17 51 -6 20 6 44 23 53 36 16 25
173 436 173 454 0 17 -48 11 -55 -7 -3 -10 -27 -76 -52 -148 -25 -71 -46 -131
-48 -133 -1 -1 -26 65 -56 148 -30 82 -58 149 -64 149 -5 -1 -17 -3 -26 -6z"/>
<path d="M6384 1286 c-72 -31 -110 -142 -83 -239 24 -87 112 -140 195 -118
184 49 153 372 -35 371 -25 -1 -60 -7 -77 -14z m111 -40 c46 -20 65 -60 65
-142 0 -62 -2 -68 -34 -100 -78 -78 -176 -19 -176 106 0 70 22 117 62 135 41
18 42 18 83 1z"/>
<path d="M7740 1115 l0 -185 25 0 25 0 0 116 0 116 39 39 c21 22 53 42 70 45
23 5 30 11 27 21 -4 8 -6 19 -6 25 0 20 -64 -2 -96 -33 l-31 -30 -7 35 c-5 27
-12 36 -26 36 -19 0 -20 -8 -20 -185z"/>
<path d="M8374 1290 c-38 -15 -66 -61 -60 -99 8 -48 29 -67 105 -92 36 -12 74
-29 85 -39 26 -25 14 -67 -22 -81 -32 -13 -101 -5 -141 16 -28 14 -29 14 -34
-11 -4 -22 1 -28 31 -41 49 -20 139 -20 178 0 61 32 70 127 16 165 -15 11 -51
27 -81 36 -83 24 -109 56 -75 90 18 19 105 22 136 5 21 -11 37 1 38 28 0 27
-126 44 -176 23z"/>
</g>
</svg>
